<svg width="118" height="118" viewBox="0 0 118 118" fill="none" xmlns="http://www.w3.org/2000/svg">
<g opacity="0.9">
<path d="M75.2293 62.7813C75.2293 62.7813 74.7922 62.4815 73.9358 62.0669L75.2293 62.7813Z" fill="black"/>
<path d="M79.7048 36.1869C76.0153 31.6932 71.2835 32.7815 69.3465 33.4954C64.7082 29.1714 58.4557 31.5678 56.3496 32.5747C49.4907 29.6508 44.3954 33.8656 42.7405 35.532C41.3425 35.5889 39.8004 35.8965 38.3382 36.7174C37.5993 37.1331 36.8734 37.6778 36.288 38.4141C35.9835 38.7719 35.7475 39.1792 35.5214 39.681L35.4128 39.9662L35.36 40.1067L35.3532 40.1244L35.3318 40.1939L35.3214 40.2362L35.301 40.3208C35.2483 40.5469 35.195 40.774 35.1417 41.0023C35.077 41.2305 35.0723 41.4623 35.0477 41.6952C35.0321 41.9276 34.9971 42.1632 35.0002 42.3966C35.031 42.8614 35.0112 43.3408 35.1177 43.8029C35.2321 44.7487 35.6002 45.6531 36.0415 46.5232C36.981 48.2345 38.6093 49.693 40.5785 50.3876C41.6726 50.7416 42.7891 50.856 43.8899 50.8059C45.9167 54.2604 45.2002 62.7814 45.2002 62.7814C45.2002 62.7814 57.499 71.4899 75.2294 62.7814L73.9358 62.067C74.7923 62.4817 75.2294 62.7814 75.2294 62.7814C74.8017 57.8752 76.0618 52.9689 78.3893 50.7119C80.7168 48.4548 84.4606 41.9788 79.7048 36.1869ZM60.6312 65.2593C52.3593 65.2593 46.4295 62.0634 46.429 62.0634C47.9847 61.3735 51.3441 60.3489 58.253 59.7395C66.3417 59.0261 71.6365 60.9552 73.928 62.0634C73.9191 62.0691 68.8959 65.2593 60.6312 65.2593ZM73.33 60.2304C60.6819 54.9314 46.9204 60.1322 46.9204 60.1322C47.2979 56.3231 46.0974 52.3783 45.4639 50.6226C45.8352 50.5536 46.2039 50.4732 46.5658 50.373C46.9789 50.2351 47.3904 50.0972 47.7993 49.9604C48.2056 49.8131 48.6097 49.6669 49.0119 49.5212C49.3842 49.3719 49.7717 49.2591 50.1623 49.1572C50.5519 49.0554 50.9305 48.929 51.3222 48.8476C52.8825 48.5065 54.4267 48.2381 55.913 48.0799C57.3982 47.9248 58.8176 47.8198 60.1336 47.7655C61.449 47.7227 62.6621 47.6872 63.739 47.6935C64.8153 47.6966 65.7573 47.7081 66.5339 47.7284C68.087 47.7692 68.9789 47.8177 68.9789 47.8177C68.9789 47.8177 68.416 47.6548 67.4002 47.4339C68.7136 46.5691 68.5998 44.6531 68.5998 44.6531C68.218 45.9701 67.1705 46.767 66.3213 47.2146C65.6064 47.0783 64.7683 46.9232 63.8058 46.7989C63.3698 46.7357 62.9034 46.6767 62.4214 46.6219C63.8382 45.1085 62.7405 43.171 62.7405 43.171C63.0763 44.7481 62.0475 45.896 61.2892 46.5064C60.92 46.4741 60.5435 46.4438 60.1534 46.4187C59.4808 46.3654 58.7768 46.3513 58.0478 46.3137C57.3178 46.3085 56.5621 46.3002 55.783 46.332C55.5584 46.3388 55.3281 46.3524 55.0999 46.3628C53.4298 44.9816 52.7395 42.2974 52.7395 42.2974C52.5264 44.6928 53.0544 45.8824 53.5588 46.4657C52.682 46.5446 51.7859 46.6574 50.8746 46.8245C50.449 46.8934 50.0244 47.0099 49.5936 47.1023C49.1623 47.1947 48.7293 47.2992 48.3006 47.4459C48.2432 47.4637 48.1847 47.482 48.1272 47.4997C47.2964 47.0851 46.1047 46.1712 45.9099 44.2834C45.9099 44.2834 45.0456 46.3383 46.7491 47.929C46.442 48.0245 46.1397 48.1191 45.8305 48.2151C44.3907 48.5755 42.7666 48.6475 41.3848 48.1655C40.0051 47.6882 38.8349 46.7012 38.1053 45.4385C37.4275 44.1659 37.041 42.689 37.2541 41.3339L37.3413 40.8362L37.3518 40.7735L37.357 40.7422C37.3674 40.7077 37.3549 40.7448 37.3481 40.7652L37.3507 40.7573L37.3967 40.6148L37.4875 40.3364C37.5909 40.1155 37.7173 39.8126 37.9058 39.5557C38.2547 39.0262 38.7529 38.575 39.3022 38.2063C40.413 37.4731 41.7123 37.0527 42.9369 36.8741C44.1683 36.6992 45.337 36.7566 46.3475 36.9493C47.3533 37.1608 48.2076 37.4882 48.8651 37.8507C49.5215 38.2152 49.9931 38.5859 50.3054 38.8502C50.6057 39.1301 50.766 39.2795 50.766 39.2795C50.766 39.2795 50.6417 39.0988 50.4088 38.7593C50.1498 38.4403 49.7649 37.9556 49.1393 37.4647C48.5199 36.9723 47.675 36.4553 46.6008 36.0824C46.1449 35.9258 45.6467 35.7931 45.1171 35.6944C51.9055 30.6111 59.6751 34.8986 61.3571 35.9414C61.3629 35.9451 61.3676 35.9482 61.3733 35.9514C61.4381 35.9916 61.4929 36.0266 61.5383 36.0558C61.5425 36.0584 61.5462 36.0605 61.5498 36.0631C61.5947 36.0924 61.6308 36.1159 61.6543 36.1315C61.6553 36.132 61.6558 36.1326 61.6569 36.1331C61.6793 36.1482 61.694 36.1582 61.694 36.1582C60.5257 35.0834 59.3904 34.2353 58.2917 33.5732C67.6723 29.316 72.3185 37.8564 72.3185 37.8564C71.638 36.3169 70.8464 35.1012 69.9857 34.145C75.9934 32.5256 78.5653 35.9044 80.0087 39.5244C81.4761 43.2039 79.9074 45.9519 76.467 50.7108C73.0266 55.4714 73.33 60.2304 73.33 60.2304Z" fill="#FCFCFC"/>
<path d="M47.3506 52.0121L47.7302 53.4842C51.9043 50.835 63.9707 49.4365 63.9707 49.4365C53.8768 49.2156 47.3506 52.0121 47.3506 52.0121Z" fill="#FCFCFC"/>
<path d="M48.0337 54.7352V55.7655C51.3728 54.1467 61.3142 51.4541 61.3142 51.4541C56.078 51.3376 48.0337 54.7352 48.0337 54.7352Z" fill="#FCFCFC"/>
<path d="M61.6934 36.1593C61.6934 36.1593 61.6803 36.1505 61.6563 36.1343C61.6552 36.1337 61.6547 36.1332 61.6537 36.1327C61.6297 36.1165 61.5941 36.093 61.5492 36.0643C61.5451 36.0617 61.5419 36.0596 61.5377 36.057C61.4923 36.0277 61.4364 35.9922 61.3727 35.9525C61.367 35.9489 61.3623 35.9463 61.3565 35.9426C61.286 35.8987 61.2056 35.8502 61.1147 35.7964L61.6934 36.1593Z" fill="black"/>
</g>
<g opacity="0.9">
<path d="M108.794 63.6304C108.642 64.2346 108.338 64.7162 107.881 65.0752C107.424 65.4343 106.894 65.5846 106.29 65.5262C105.798 65.4786 105.364 65.3101 104.989 65.0206C104.614 64.7311 104.331 64.3569 104.141 63.8978C103.96 63.4396 103.896 62.9364 103.949 62.3883C103.977 62.1003 104.022 61.7812 104.084 61.4309C104.106 61.3017 104.131 61.1447 104.158 60.9598C104.185 60.7749 104.21 60.5663 104.232 60.334L104.313 59.3572C104.321 59.1798 104.339 58.9425 104.368 58.6452C104.37 58.6173 104.4 58.6061 104.455 58.6115C104.511 58.6169 104.538 58.6335 104.535 58.6614C104.503 58.9958 104.502 59.2442 104.533 59.4067C104.564 59.5691 104.642 59.6845 104.767 59.7528C104.901 59.822 105.107 59.8701 105.386 59.897L111.838 60.5209C112.116 60.5479 112.324 60.5398 112.459 60.4966C112.594 60.4534 112.693 60.3551 112.755 60.2017C112.825 60.0584 112.876 59.8196 112.908 59.4852C112.91 59.4666 112.939 59.46 112.995 59.4654C113.051 59.4708 113.077 59.4827 113.076 59.5013L112.994 60.1967C112.936 60.6037 112.896 60.9279 112.872 61.1695C112.855 61.346 112.844 61.5137 112.838 61.6725C112.832 61.8313 112.828 61.9669 112.826 62.0793C112.825 62.3886 112.811 62.6733 112.786 62.9334C112.714 63.6766 112.515 64.2293 112.19 64.5917C111.873 64.9549 111.436 65.1096 110.879 65.0557C110.108 64.9811 109.413 64.506 108.794 63.6304ZM112.581 62.576C112.604 62.3438 112.598 62.165 112.563 62.0398C112.527 61.9238 112.442 61.8312 112.309 61.762C112.184 61.6937 111.982 61.646 111.703 61.6191L109.042 61.3617L108.865 63.1872L108.853 63.3126C109.288 63.6641 109.84 63.8722 110.509 63.9369C111.791 64.0608 112.482 63.6072 112.581 62.576ZM104.25 62.1923C104.126 63.4743 104.728 64.1796 106.056 64.308C106.79 64.379 107.384 64.2489 107.838 63.9177C108.292 63.5866 108.557 63.0354 108.631 62.2644L108.721 61.3307L105.279 60.9979C104.954 60.9664 104.714 61.0276 104.558 61.1813C104.402 61.3444 104.299 61.6814 104.25 62.1923Z" fill="#FCFCFC"/>
<path d="M101.003 76.0854C100.989 76.1299 100.955 76.1437 100.902 76.1268C100.857 76.1128 100.842 76.0835 100.856 76.039C100.909 75.8699 101.001 75.6102 101.132 75.2599L101.398 74.4632C101.46 74.2674 101.53 74.0154 101.608 73.7072L101.814 73.0089C101.825 72.9733 101.853 72.9625 101.898 72.9766C101.951 72.9935 101.972 73.0197 101.961 73.0553C101.865 73.3579 101.827 73.5858 101.847 73.7389C101.865 73.901 101.949 74.006 102.1 74.0538C102.234 74.096 102.458 74.0985 102.773 74.0611L106.11 73.6331L106.815 71.4039L104.808 69.624C104.548 69.3949 104.311 69.2465 104.097 69.179C103.545 69.0045 103.13 69.3578 102.852 70.2388C102.837 70.2833 102.804 70.2971 102.75 70.2802C102.706 70.2661 102.691 70.2368 102.705 70.1923L102.938 69.5024C103.062 69.1699 103.164 68.8791 103.243 68.6299C103.316 68.3985 103.394 68.1198 103.478 67.7938L103.684 67.0955C103.695 67.0599 103.723 67.0491 103.768 67.0632C103.821 67.0801 103.842 67.1063 103.831 67.1419C103.727 67.4712 103.766 67.7968 103.948 68.1186C104.127 68.4494 104.492 68.8585 105.043 69.3459L109.344 73.2022C109.641 73.1297 109.834 73.0781 109.922 73.0472C109.954 73.0378 109.994 73.0505 110.042 73.0852C110.096 73.1316 110.156 73.1897 110.222 73.2595C110.399 73.4427 110.583 73.6037 110.774 73.7424C110.974 73.884 111.216 73.9998 111.501 74.0898C111.528 74.0982 111.537 74.1306 111.529 74.1868C111.527 74.2547 111.511 74.2889 111.482 74.2893C110.643 74.2492 109.611 74.3095 108.385 74.4701L103.157 75.1222C102.403 75.2166 101.877 75.3339 101.578 75.4744C101.276 75.6237 101.084 75.8274 101.003 76.0854ZM106.459 73.5967L108.341 73.355L108.929 73.2618L107.079 71.6345L106.459 73.5967Z" fill="#FCFCFC"/>
<path d="M96.5798 84.9797C96.5737 85.0086 96.5442 85.0129 96.4911 84.9927C96.4461 84.9771 96.4203 84.9566 96.4136 84.931C96.5143 84.6114 96.6266 84.1796 96.7506 83.6357C96.7581 83.586 96.7811 83.4913 96.8196 83.3516C96.8454 83.2153 96.8772 83.1149 96.9149 83.0505C96.9904 82.9216 97.091 82.8237 97.2167 82.7568C97.3344 82.6851 97.5465 82.6093 97.853 82.5292C98.1548 82.4572 98.7026 82.3346 99.4963 82.1613L99.9419 82.0654L103.167 81.4072L100.316 79.7372C100.074 79.5957 99.8791 79.5137 99.73 79.4913C99.5889 79.4735 99.4605 79.5173 99.3448 79.6226C99.2243 79.7359 99.0792 79.9375 98.9093 80.2274C98.8952 80.2516 98.864 80.2495 98.8156 80.2212C98.7673 80.1929 98.7502 80.1667 98.7644 80.1425C98.9153 79.8848 99.0373 79.6858 99.1303 79.5456L99.6448 78.695L100.128 77.8423C100.21 77.6846 100.328 77.4728 100.484 77.2071C100.493 77.191 100.522 77.1971 100.571 77.2254C100.619 77.2537 100.638 77.2759 100.629 77.292C100.459 77.5819 100.354 77.8071 100.314 77.9676C100.274 78.1281 100.297 78.2655 100.381 78.3799C100.473 78.499 100.641 78.6293 100.882 78.7708L106.475 82.0471C106.717 82.1887 106.908 82.2683 107.049 82.286C107.19 82.3037 107.321 82.2559 107.441 82.1426C107.565 82.0421 107.71 81.8509 107.875 81.569C107.889 81.5448 107.92 81.5469 107.969 81.5752C108.017 81.6035 108.034 81.6298 108.02 81.6539L107.654 82.2508C107.43 82.5957 107.257 82.8729 107.134 83.0823C107.002 83.3078 106.84 83.6024 106.649 83.9662L106.314 84.5652C106.305 84.5813 106.276 84.5752 106.228 84.5469C106.179 84.5186 106.16 84.4964 106.169 84.4803C106.335 84.1984 106.433 83.9749 106.465 83.8097C106.497 83.6444 106.466 83.5023 106.374 83.3832C106.29 83.2688 106.127 83.1409 105.885 82.9994L103.348 81.5134L104.324 85.525C104.428 85.9208 104.556 86.1636 104.709 86.2532C104.918 86.3759 105.162 86.1997 105.441 85.7245C105.45 85.7084 105.479 85.7145 105.527 85.7428C105.576 85.7711 105.595 85.7933 105.586 85.8094L105.262 86.3339C105.057 86.6466 104.875 86.9398 104.714 87.2136C104.544 87.5036 104.373 87.8143 104.201 88.1459L103.93 88.6361C103.916 88.6603 103.884 88.6582 103.836 88.6299C103.788 88.6016 103.771 88.5754 103.785 88.5512C103.983 88.213 104.113 87.797 104.175 87.3033C104.237 86.8097 104.206 86.2994 104.082 85.7724L103.303 82.4767L100.2 83.0928C99.0454 83.3466 98.225 83.5746 97.7389 83.7766C97.2561 83.9913 96.9346 84.2356 96.7742 84.5095C96.7081 84.6222 96.6433 84.779 96.5798 84.9797Z" fill="#FCFCFC"/>
<path d="M92.6888 91.9773C92.7027 91.9897 92.6973 92.0099 92.6724 92.0377C92.6538 92.0587 92.6313 92.0699 92.605 92.0714C92.5794 92.0861 92.5631 92.0904 92.5562 92.0842C92.1162 91.5677 91.6766 91.114 91.2374 90.7231C91.1816 90.6734 91.1491 90.6258 91.1398 90.58C91.1375 90.5405 91.1643 90.4894 91.2201 90.4266L95.1851 85.9715C95.2037 85.9506 95.234 85.9587 95.2758 85.9959C95.3176 86.0332 95.3292 86.0622 95.3106 86.0832C95.0872 86.3342 94.9433 86.5309 94.8789 86.6735C94.8145 86.8161 94.8125 86.9517 94.8729 87.0804C94.9402 87.2153 95.0785 87.3759 95.2876 87.562L100.13 91.8714C100.339 92.0575 100.511 92.1731 100.646 92.2182C100.781 92.2632 100.918 92.242 101.058 92.1545C101.2 92.0801 101.379 91.921 101.596 91.677C101.615 91.656 101.645 91.6642 101.687 91.7014C101.728 91.7387 101.74 91.7677 101.721 91.7886L97.9239 96.0555C97.8619 96.1252 97.7995 96.1322 97.7368 96.0763L96.4004 94.9245C96.3795 94.9059 96.3842 94.8726 96.4144 94.8245C96.4455 94.7897 96.4745 94.7781 96.5017 94.7897C96.9286 95.0822 97.3389 95.2037 97.7327 95.1544C98.1334 95.1112 98.4951 94.9084 98.8178 94.5458L99.2925 94.0124C99.5655 93.7057 99.7032 93.4597 99.7056 93.2744C99.7151 93.0954 99.5943 92.8942 99.3433 92.6708L97.2203 90.7814L96.1965 91.9318C95.88 92.2873 95.7066 92.6015 95.6762 92.8743C95.6528 93.1534 95.77 93.4077 96.028 93.6372C96.0419 93.6497 96.0334 93.6733 96.0024 93.7082C95.9651 93.75 95.9396 93.7647 95.9256 93.7523L95.0564 92.96L94.5765 92.5516C94.341 92.367 94.1605 92.2189 94.035 92.1072C94.0211 92.0948 94.0327 92.0676 94.0699 92.0258C94.1072 91.984 94.1328 91.9693 94.1467 91.9817C94.4465 92.2485 94.7437 92.3568 95.0382 92.3066C95.3336 92.2696 95.6488 92.0628 95.9838 91.6863L96.9797 90.5673L94.5849 88.4359C94.3339 88.2125 94.1227 88.1058 93.9514 88.1158C93.7739 88.1327 93.5579 88.2841 93.3035 88.57L92.6986 89.2498C92.3449 89.6472 92.1683 90.0772 92.1688 90.54C92.17 91.0159 92.3434 91.495 92.6888 91.9773Z" fill="#FCFCFC"/>
<path d="M83.0252 97.8767C83.0158 97.8953 82.9906 97.8851 82.9496 97.8459C82.9085 97.8067 82.8926 97.7777 82.902 97.7591C83.1521 97.4548 83.3976 97.1365 83.6384 96.8043C83.8736 96.4646 84.0434 96.2555 84.148 96.1771C84.2824 96.0763 84.5008 96.0408 84.8032 96.0707C85.1037 96.1136 85.6282 96.2686 86.3768 96.5355C87.1253 96.8024 88.2033 97.2364 89.6108 97.8375C89.7694 97.6602 89.9272 97.5127 90.084 97.3951C90.2258 97.2887 90.4144 97.159 90.6496 97.0059L88.6672 94.3627C88.4992 94.1387 88.3508 93.9875 88.222 93.9091C88.0988 93.8382 87.9634 93.8288 87.816 93.8811C87.661 93.939 87.4492 94.0687 87.1804 94.2703C87.158 94.2871 87.13 94.2731 87.0964 94.2283C87.0628 94.1835 87.0572 94.1527 87.0796 94.1359C87.311 93.9623 87.4968 93.8288 87.6368 93.7355L88.4516 93.1419L89.2272 92.5427C89.3635 92.4288 89.5511 92.2823 89.79 92.1031C89.8124 92.0863 89.8404 92.1003 89.874 92.1451C89.9076 92.1899 89.9132 92.2207 89.8908 92.2375C89.622 92.4391 89.4381 92.6062 89.3392 92.7387C89.2403 92.8712 89.2076 93.0066 89.2412 93.1447C89.2804 93.2903 89.384 93.4751 89.552 93.6991L93.4412 98.8847C93.6092 99.1087 93.7548 99.2562 93.8779 99.3271C94.0011 99.3981 94.1402 99.4046 94.2951 99.3467C94.4482 99.3019 94.6592 99.1787 94.928 98.9771C94.9429 98.9659 94.9672 98.9827 95.0008 99.0275C95.0344 99.0724 95.0437 99.1004 95.0288 99.1115L94.4603 99.5203C94.1206 99.7518 93.8537 99.9403 93.6595 100.086C93.5251 100.187 93.401 100.286 93.2871 100.383C93.1733 100.48 93.0743 100.566 92.9903 100.64C92.7607 100.848 92.5377 101.032 92.3211 101.195C91.6865 101.671 91.1022 101.911 90.5683 101.914C90.0401 101.926 89.6107 101.711 89.2803 101.27C89.0115 100.912 88.865 100.491 88.8407 100.008C88.8146 99.5371 88.9042 99.0732 89.1096 98.6159C87.6797 98.0783 86.597 97.7003 85.8616 97.4819C85.1242 97.2766 84.5913 97.1804 84.2628 97.1935C83.9398 97.214 83.6589 97.3139 83.42 97.4931C83.3304 97.5603 83.1988 97.6881 83.0252 97.8767ZM90.868 97.2971C90.5618 97.4801 90.3304 97.6303 90.1736 97.7479C89.6957 98.1063 89.4344 98.4657 89.3896 98.8259C89.3429 99.1993 89.5155 99.6473 89.9075 100.17C90.3499 100.76 90.7755 101.094 91.1843 101.172C91.5931 101.251 91.9954 101.142 92.3911 100.845C92.5853 100.699 92.7206 100.568 92.7971 100.453C92.8662 100.343 92.8811 100.215 92.8419 100.069C92.8083 99.931 92.7075 99.7499 92.5395 99.5259L90.868 97.2971Z" fill="#FCFCFC"/>
<path d="M78.044 109.394C78.027 109.402 78.0068 109.38 77.9833 109.329C77.9597 109.279 77.9564 109.249 77.9734 109.241C78.2613 109.108 78.5139 108.832 78.7311 108.412C78.9437 108.005 79.0833 107.529 79.1497 106.984L79.5778 103.777L78.2482 100.906C78.1266 100.644 78.0172 100.463 77.9199 100.364C77.8142 100.269 77.6838 100.232 77.5287 100.252C77.3651 100.276 77.1308 100.359 76.8259 100.5C76.8005 100.512 76.7761 100.493 76.7525 100.442C76.729 100.391 76.7299 100.36 76.7554 100.348C77.0179 100.226 77.2274 100.134 77.3837 100.072L78.3043 99.6614L79.1877 99.2369C79.3362 99.1578 79.5502 99.0536 79.8297 98.9241C79.8551 98.9124 79.8796 98.9319 79.9031 98.9827C79.9266 99.0335 79.9257 99.0648 79.9003 99.0766C79.5954 99.2178 79.3808 99.3429 79.2564 99.4519C79.132 99.5609 79.0719 99.6865 79.076 99.8286C79.084 99.9792 79.1468 100.182 79.2645 100.436L80.4941 103.091L83.9083 105.166C84.3676 105.447 84.7403 105.619 85.0266 105.682C85.3044 105.749 85.5618 105.727 85.799 105.617C85.8244 105.606 85.8488 105.625 85.8724 105.676C85.8959 105.727 85.895 105.758 85.8696 105.77C85.7764 105.813 85.6243 105.873 85.4132 105.95L84.9881 106.132C84.7086 106.261 84.3271 106.448 83.8438 106.693L83.1128 107.046C83.0959 107.054 83.0756 107.033 83.0521 106.982C83.0286 106.931 83.0253 106.902 83.0422 106.894C83.4403 106.71 83.5922 106.516 83.4981 106.313C83.455 106.219 83.3535 106.122 83.1936 106.022L79.8841 104.006L79.5026 106.913C79.4523 107.338 79.4762 107.656 79.5742 107.867C79.6527 108.037 79.7708 108.136 79.9286 108.166C80.0903 108.204 80.2855 108.171 80.5141 108.065C80.5396 108.053 80.564 108.073 80.5876 108.123C80.6111 108.174 80.6102 108.205 80.5847 108.217L79.9564 108.493C79.6098 108.633 79.2967 108.767 79.0172 108.897C78.8732 108.964 78.7035 109.052 78.5081 109.163L78.044 109.394Z" fill="#FCFCFC"/>
<path d="M54.8514 108.817C54.2434 108.681 53.7538 108.39 53.3825 107.943C53.0113 107.496 52.8467 106.97 52.8888 106.365C52.9232 105.871 53.0799 105.433 53.3592 105.05C53.6384 104.668 54.0049 104.375 54.4587 104.173C54.9119 103.98 55.4131 103.902 55.9625 103.94C56.2511 103.96 56.5714 103.997 56.9232 104.049C57.0529 104.068 57.2106 104.088 57.3961 104.11C57.5817 104.132 57.7909 104.152 58.0237 104.168L59.0023 104.222C59.1798 104.225 59.4176 104.237 59.7155 104.258C59.7434 104.259 59.7555 104.288 59.7516 104.344C59.7477 104.4 59.7318 104.427 59.7039 104.425C59.3687 104.402 59.1203 104.408 58.9588 104.443C58.7973 104.479 58.684 104.56 58.6191 104.686C58.5535 104.822 58.511 105.03 58.4916 105.309L58.0418 111.775C58.0224 112.055 58.0361 112.262 58.0829 112.396C58.1297 112.53 58.2306 112.626 58.3857 112.684C58.5308 112.75 58.7709 112.795 59.1061 112.818C59.1247 112.819 59.1321 112.848 59.1282 112.904C59.1243 112.959 59.1131 112.987 59.0944 112.985L58.3971 112.923C57.9887 112.876 57.6635 112.844 57.4214 112.827C57.2445 112.815 57.0766 112.808 56.9176 112.806C56.7587 112.804 56.6231 112.804 56.5107 112.806C56.2015 112.812 55.9165 112.807 55.6558 112.788C54.9109 112.737 54.353 112.553 53.982 112.237C53.6104 111.93 53.444 111.498 53.4829 110.939C53.5366 110.166 53.9928 109.459 54.8514 108.817ZM56.0075 112.574C56.2403 112.59 56.4188 112.579 56.5431 112.541C56.6581 112.503 56.7483 112.415 56.8139 112.28C56.8788 112.153 56.921 111.95 56.9405 111.671L57.126 109.003L55.2964 108.876L55.1707 108.867C54.8311 109.311 54.6379 109.869 54.5913 110.539C54.5019 111.824 54.974 112.502 56.0075 112.574ZM56.1665 104.235C54.8816 104.146 54.1929 104.767 54.1003 106.098C54.0491 106.834 54.1952 107.424 54.5385 107.869C54.8817 108.314 55.4398 108.563 56.2126 108.617L57.1483 108.682L57.3883 105.232C57.4109 104.906 57.3433 104.668 57.1854 104.517C57.0182 104.365 56.6786 104.271 56.1665 104.235Z" fill="#FCFCFC"/>
<path d="M42.192 101.341C42.1472 101.328 42.1325 101.295 42.1479 101.241C42.1608 101.196 42.1897 101.18 42.2345 101.193C42.405 101.242 42.667 101.327 43.0207 101.448L43.8242 101.693C44.0215 101.75 44.2752 101.813 44.5854 101.883L45.289 102.071C45.3248 102.081 45.3363 102.109 45.3234 102.153C45.308 102.207 45.2823 102.229 45.2464 102.219C44.9414 102.131 44.7126 102.099 44.56 102.123C44.3985 102.145 44.2958 102.232 44.252 102.385C44.2133 102.519 44.2168 102.743 44.2625 103.058L44.7787 106.381L47.0257 107.027L48.7519 104.974C48.9741 104.708 49.1161 104.467 49.1779 104.251C49.3377 103.695 48.9736 103.29 48.0855 103.034C48.0407 103.022 48.026 102.988 48.0415 102.934C48.0544 102.89 48.0832 102.874 48.1281 102.886L48.8239 103.101C49.1596 103.217 49.4531 103.311 49.7042 103.383C49.9375 103.45 50.2181 103.521 50.5462 103.596L51.2498 103.783C51.2856 103.794 51.2971 103.821 51.2843 103.866C51.2688 103.92 51.2431 103.942 51.2072 103.931C50.8753 103.836 50.5509 103.884 50.234 104.074C49.908 104.262 49.5088 104.638 49.0361 105.201L45.295 109.603C45.3753 109.898 45.4321 110.089 45.4653 110.177C45.4755 110.209 45.4639 110.249 45.4305 110.298C45.3855 110.353 45.329 110.414 45.261 110.482C45.0825 110.664 44.9264 110.852 44.7928 111.047C44.6566 111.25 44.5473 111.496 44.4648 111.783C44.4571 111.81 44.425 111.82 44.3686 111.813C44.3006 111.813 44.2661 111.799 44.2648 111.769C44.2827 110.929 44.1952 109.899 44.0021 108.678L43.2119 103.469C43.0976 102.718 42.9664 102.195 42.8181 101.9C42.6608 101.602 42.4522 101.416 42.192 101.341ZM44.8243 106.73L45.1157 108.605L45.2244 109.19L46.8022 107.298L44.8243 106.73Z" fill="#FCFCFC"/>
<path d="M33.2716 97.1975C33.2425 97.1923 33.2373 97.1629 33.256 97.1093C33.2702 97.0638 33.29 97.0374 33.3153 97.03C33.6378 97.1212 34.0727 97.2207 34.62 97.3286C34.6699 97.3346 34.7653 97.3548 34.906 97.3892C35.0431 97.411 35.1443 97.4398 35.2098 97.4756C35.3409 97.5472 35.4417 97.6449 35.5123 97.7686C35.5874 97.8842 35.6695 98.0939 35.7586 98.3979C35.8395 98.6975 35.9782 99.2414 36.1747 100.03L36.2838 100.472L37.0368 103.676L38.622 100.778C38.7563 100.532 38.8325 100.334 38.8506 100.184C38.8641 100.043 38.8166 99.9159 38.7079 99.8033C38.5911 99.6862 38.3853 99.5471 38.0905 99.3859C38.0659 99.3725 38.0671 99.3412 38.094 99.292C38.1208 99.2429 38.1465 99.2251 38.1711 99.2385C38.4332 99.3818 38.6356 99.4978 38.7786 99.5866L39.644 100.076L40.5105 100.534C40.6706 100.611 40.8858 100.723 41.156 100.871C41.1724 100.88 41.1671 100.909 41.1403 100.958C41.1134 101.007 41.0918 101.027 41.0754 101.018C40.7806 100.857 40.5524 100.759 40.3908 100.724C40.2292 100.688 40.0925 100.715 39.9806 100.802C39.8643 100.898 39.739 101.069 39.6047 101.315L36.4948 107.002C36.3604 107.248 36.2865 107.441 36.2729 107.583C36.2594 107.724 36.311 107.854 36.4278 107.971C36.532 108.092 36.7273 108.23 37.014 108.387C37.0385 108.4 37.0374 108.432 37.0105 108.481C36.9836 108.53 36.9579 108.548 36.9334 108.534L36.3259 108.186C35.9745 107.973 35.6924 107.808 35.4795 107.692C35.2502 107.566 34.9509 107.413 34.5817 107.232L33.973 106.916C33.9567 106.907 33.9619 106.878 33.9888 106.829C34.0156 106.779 34.0373 106.759 34.0536 106.768C34.3403 106.925 34.5666 107.017 34.7327 107.044C34.8988 107.071 35.04 107.036 35.1563 106.94C35.2681 106.853 35.3912 106.686 35.5255 106.44L36.9361 103.861L32.955 104.955C32.5623 105.07 32.3235 105.205 32.2384 105.361C32.1219 105.574 32.3053 105.812 32.7885 106.076C32.8048 106.085 32.7996 106.114 32.7727 106.164C32.7459 106.213 32.7242 106.233 32.7079 106.224L32.1741 105.916C31.8555 105.72 31.557 105.547 31.2786 105.394C30.9838 105.233 30.6681 105.071 30.3316 104.908L29.8335 104.652C29.809 104.639 29.8101 104.607 29.837 104.558C29.8638 104.509 29.8896 104.491 29.9141 104.505C30.2581 104.693 30.6777 104.81 31.173 104.858C31.6683 104.905 32.1774 104.859 32.7005 104.72L35.9718 103.844L35.2645 100.761C34.9767 99.6139 34.7246 98.8006 34.5084 98.3206C34.2795 97.8444 34.0258 97.5302 33.7474 97.3779C33.6327 97.3152 33.4741 97.2551 33.2716 97.1975Z" fill="#FCFCFC"/>
<path d="M26.1682 93.474C26.1561 93.4882 26.1359 93.4833 26.1074 93.4592C26.086 93.4411 26.0742 93.4189 26.072 93.3926C26.0566 93.3674 26.0519 93.3512 26.058 93.3441C26.5631 92.8912 27.0054 92.4402 27.385 91.9911C27.4333 91.9341 27.4801 91.9004 27.5256 91.8899C27.565 91.8866 27.6168 91.9121 27.681 91.9663L32.2356 95.8166C32.257 95.8347 32.2496 95.8651 32.2135 95.9079C32.1773 95.9506 32.1485 95.963 32.1272 95.9449C31.8706 95.728 31.6702 95.5891 31.526 95.5284C31.3818 95.4676 31.2462 95.469 31.1191 95.5327C30.9859 95.6034 30.829 95.7457 30.6482 95.9596L26.4635 100.91C26.2827 101.124 26.1716 101.299 26.13 101.434C26.0884 101.57 26.1131 101.707 26.2042 101.845C26.282 101.985 26.4457 102.16 26.6952 102.371C26.7166 102.389 26.7092 102.419 26.673 102.462C26.6369 102.505 26.6081 102.517 26.5867 102.499L22.2246 98.8113C22.1533 98.751 22.1448 98.6888 22.199 98.6247L23.3164 97.2594C23.3345 97.2381 23.3679 97.2419 23.4167 97.2709C23.4524 97.301 23.4647 97.3298 23.4538 97.3572C23.1722 97.7914 23.0612 98.2047 23.1206 98.5971C23.1739 98.9966 23.3859 99.3531 23.7565 99.6664L24.3018 100.127C24.6154 100.392 24.8649 100.524 25.0501 100.522C25.2293 100.526 25.4274 100.401 25.6443 100.144L27.4791 97.9736L26.303 96.9794C25.9395 96.6721 25.621 96.5067 25.3475 96.4833C25.068 96.4669 24.8167 96.5906 24.5938 96.8544C24.5817 96.8686 24.5579 96.8607 24.5223 96.8306C24.4795 96.7944 24.4641 96.7692 24.4762 96.755L25.2461 95.8659L25.6421 95.3757C25.8207 95.1356 25.9642 94.9514 26.0726 94.8231C26.0847 94.8088 26.1121 94.8198 26.1549 94.8559C26.1976 94.8921 26.213 94.9173 26.2009 94.9315C25.9418 95.238 25.8411 95.5379 25.8988 95.8311C25.9433 96.1254 26.1581 96.4352 26.543 96.7606L27.687 97.7277L29.7567 95.2793C29.9736 95.0227 30.0749 94.8089 30.0606 94.6379C30.0391 94.4609 29.8823 94.2488 29.5901 94.0018L28.8951 93.4143C28.4888 93.0709 28.0544 92.9053 27.5918 92.9175C27.1161 92.9309 26.6416 93.1164 26.1682 93.474Z" fill="#FCFCFC"/>
<path d="M20.0315 83.9858C20.0126 83.9769 20.0222 83.9515 20.0604 83.9094C20.0985 83.8674 20.127 83.8508 20.1459 83.8596C20.4565 84.1019 20.7809 84.3392 21.1192 84.5714C21.4648 84.7979 21.6781 84.9623 21.7592 85.0648C21.8634 85.1966 21.9044 85.414 21.8823 85.7171C21.847 86.0186 21.7055 86.547 21.4578 87.3021C21.21 88.0572 20.8037 89.1459 20.2387 90.5682C20.42 90.7223 20.5715 90.8762 20.6931 91.03C20.803 91.1691 20.9375 91.3543 21.0966 91.5855L23.6883 89.5363C23.908 89.3626 24.0553 89.2104 24.1304 89.0796C24.1982 88.9547 24.204 88.8191 24.148 88.6731C24.0862 88.5197 23.9511 88.3112 23.7427 88.0476C23.7254 88.0256 23.7387 87.9973 23.7826 87.9626C23.8265 87.9278 23.8572 87.9214 23.8745 87.9434C24.054 88.1704 24.1921 88.3526 24.289 88.4902L24.9032 89.2896L25.522 90.0497C25.6393 90.183 25.7906 90.3668 25.9758 90.6011C25.9932 90.623 25.9799 90.6514 25.936 90.6861C25.8921 90.7208 25.8614 90.7272 25.844 90.7052C25.6356 90.4417 25.4639 90.2621 25.3289 90.1666C25.1939 90.0711 25.0578 90.0419 24.9206 90.079C24.776 90.1219 24.5939 90.2302 24.3743 90.4039L19.2896 94.4241C19.07 94.5978 18.9263 94.7471 18.8585 94.8721C18.7907 94.997 18.7877 95.1362 18.8495 95.2896C18.8982 95.4415 19.0268 95.6492 19.2352 95.9128C19.2467 95.9274 19.2306 95.9521 19.1866 95.9868C19.1427 96.0216 19.115 96.0316 19.1034 96.017L18.6802 95.4592C18.4402 95.1255 18.2449 94.8634 18.0944 94.6731C17.9902 94.5413 17.8881 94.4197 17.7882 94.3084C17.6882 94.197 17.5999 94.1003 17.5231 94.0182C17.3101 93.794 17.1196 93.5757 16.9518 93.3634C16.4597 92.7411 16.205 92.1631 16.1877 91.6295C16.163 91.1017 16.3666 90.6671 16.7986 90.3255C17.15 90.0477 17.5671 89.8904 18.0498 89.8539C18.5194 89.8157 18.9854 89.8935 19.4478 90.0871C19.9487 88.6439 20.299 87.552 20.4985 86.8112C20.685 86.0688 20.7675 85.5336 20.746 85.2055C20.7173 84.8832 20.6103 84.6049 20.425 84.3707C20.3556 84.2828 20.2244 84.1545 20.0315 83.9858ZM20.811 91.8112C20.6203 91.5099 20.4642 91.2823 20.3427 91.1286C19.9722 90.66 19.6063 90.4079 19.245 90.3723C18.8706 90.3352 18.4271 90.5192 17.9147 90.9244C17.3363 91.3818 17.0131 91.8157 16.9452 92.2264C16.8772 92.6371 16.9966 93.0364 17.3034 93.4245C17.454 93.6148 17.588 93.7468 17.7057 93.8203C17.8175 93.8866 17.9457 93.8982 18.0903 93.8553C18.2275 93.8182 18.406 93.7128 18.6256 93.5392L20.811 91.8112Z" fill="#FCFCFC"/>
<path d="M8.39067 79.3344C8.38239 79.3177 8.40334 79.2969 8.45353 79.2721C8.50371 79.2472 8.53295 79.2431 8.54123 79.2599C8.68202 79.5443 8.96489 79.7896 9.38982 79.9958C9.80225 80.1978 10.2818 80.3249 10.8284 80.3771L14.0452 80.7217L16.8807 79.3179C17.14 79.1895 17.3178 79.0755 17.4142 78.9757C17.5065 78.8675 17.5404 78.7362 17.516 78.5816C17.4874 78.4187 17.3986 78.1867 17.2495 77.8856C17.2371 77.8605 17.256 77.8355 17.3062 77.8107C17.3563 77.7858 17.3876 77.786 17.4001 77.8111C17.5284 78.0704 17.6257 78.2773 17.6919 78.4321L18.1266 79.3416L18.5739 80.2137C18.6568 80.3601 18.7666 80.5713 18.9032 80.8473C18.9157 80.8724 18.8968 80.8974 18.8466 80.9223C18.7964 80.9471 18.7651 80.947 18.7527 80.9219C18.6036 80.6208 18.473 80.4095 18.3607 80.288C18.2485 80.1665 18.1214 80.1096 17.9795 80.1174C17.8292 80.1293 17.6286 80.1974 17.3776 80.3216L14.7554 81.6198L12.7694 85.0868C12.5004 85.5533 12.3383 85.9304 12.2829 86.2182C12.2233 86.4976 12.2515 86.7544 12.3675 86.9886C12.3799 87.0137 12.361 87.0387 12.3108 87.0635C12.2606 87.0884 12.2293 87.0882 12.2169 87.0632C12.1713 86.9711 12.1072 86.8206 12.0246 86.6116L11.8322 86.1913C11.6955 85.9153 11.4987 85.5389 11.2418 85.062L10.869 84.3405C10.8607 84.3238 10.8817 84.303 10.9319 84.2782C10.9821 84.2533 11.0113 84.2493 11.0196 84.266C11.2142 84.6591 11.4119 84.806 11.6126 84.7066C11.7046 84.6611 11.799 84.5571 11.8956 84.3947L13.8248 81.0339L10.9084 80.7281C10.4828 80.6888 10.1654 80.721 9.9563 80.8245C9.78901 80.9073 9.69253 81.028 9.66686 81.1865C9.63282 81.3491 9.67171 81.5434 9.78351 81.7692C9.79593 81.7943 9.77705 81.8193 9.72687 81.8441C9.67668 81.869 9.64538 81.8688 9.63295 81.8437L9.34114 81.2227C9.19223 80.8799 9.04945 80.5704 8.9128 80.2944C8.8424 80.1522 8.74915 79.9849 8.63304 79.7924L8.39067 79.3344Z" fill="#FCFCFC"/>
<path d="M8.32474 56.265C8.44413 55.6536 8.72215 55.1562 9.1588 54.7731C9.59546 54.39 10.1168 54.2113 10.723 54.237C11.2172 54.258 11.6594 54.4029 12.0497 54.6717C12.44 54.9405 12.7424 55.299 12.9569 55.7472C13.1621 56.1949 13.253 56.6939 13.2296 57.2441C13.2173 57.5332 13.1897 57.8543 13.1466 58.2074C13.1318 58.3376 13.1157 58.4957 13.0985 58.6818C13.0812 58.8679 13.0677 59.0775 13.0578 59.3107L13.0301 60.2904C13.0319 60.4679 13.0265 60.7059 13.0138 61.0043C13.0126 61.0323 12.9841 61.0451 12.9281 61.0427C12.8722 61.0403 12.8448 61.0252 12.846 60.9972C12.8602 60.6615 12.8474 60.4134 12.8075 60.2529C12.7676 60.0924 12.6836 59.9814 12.5554 59.9199C12.4179 59.858 12.2093 59.8211 11.9296 59.8092L5.45342 59.5341C5.17367 59.5223 4.96733 59.5415 4.83441 59.5919C4.70148 59.6423 4.60834 59.7458 4.55498 59.9023C4.49269 60.0492 4.45442 60.2904 4.44016 60.6261C4.43937 60.6448 4.411 60.6529 4.35505 60.6505C4.2991 60.6482 4.27152 60.6376 4.27231 60.619L4.31601 59.9202C4.35208 59.5107 4.37527 59.1847 4.38557 58.9423C4.3931 58.7651 4.39556 58.5971 4.39297 58.4381C4.39038 58.2792 4.3868 58.1436 4.38223 58.0313C4.36732 57.7224 4.36542 57.4374 4.37651 57.1763C4.40819 56.4303 4.57689 55.8676 4.8826 55.4883C5.17898 55.1085 5.60692 54.9305 6.16642 54.9543C6.94039 54.9871 7.65983 55.4241 8.32474 56.265ZM4.60003 57.5221C4.59013 57.7552 4.60592 57.9334 4.64739 58.0566C4.68927 58.1705 4.77895 58.2584 4.91645 58.3203C5.04462 58.3818 5.24858 58.4184 5.52833 58.4303L8.19992 58.5438L8.27775 56.7115L8.2831 56.5856C7.82992 56.258 7.26764 56.08 6.59624 56.0515C5.3094 55.9968 4.644 56.487 4.60003 57.5221ZM12.9404 57.456C12.995 56.1692 12.3556 55.4974 11.0221 55.4408C10.2855 55.4095 9.69941 55.5714 9.26395 55.9266C8.82848 56.2818 8.59431 56.8463 8.56143 57.6203L8.52163 58.5575L11.9765 58.7042C12.3029 58.7181 12.5396 58.6441 12.6866 58.4822C12.834 58.3109 12.9186 57.9689 12.9404 57.456Z" fill="#FCFCFC"/>
<path d="M15.4344 43.3808C15.4461 43.3356 15.4791 43.3201 15.5333 43.3341C15.5785 43.3458 15.5952 43.3742 15.5835 43.4194C15.5391 43.5911 15.4611 43.8553 15.3494 44.212L15.1254 45.0217C15.074 45.2205 15.0175 45.4758 14.9561 45.7877L14.7873 46.496C14.7779 46.5322 14.7506 46.5444 14.7055 46.5327C14.6512 46.5187 14.6288 46.4936 14.6382 46.4574C14.7177 46.1502 14.7433 45.9207 14.7152 45.7688C14.6893 45.6078 14.5996 45.5075 14.446 45.4677C14.3105 45.4326 14.0863 45.4421 13.7734 45.4961L10.4645 46.1003L9.87872 48.3638L11.977 50.0348C12.2491 50.2498 12.4936 50.3854 12.7105 50.4415C13.2707 50.5865 13.6665 50.2117 13.898 49.3172C13.9097 49.272 13.9427 49.2565 13.9969 49.2705C14.0421 49.2822 14.0588 49.3106 14.0471 49.3558L13.8512 50.0571C13.7442 50.3957 13.658 50.6916 13.5925 50.9446C13.5317 51.1795 13.4683 51.462 13.4022 51.7919L13.2333 52.5002C13.224 52.5363 13.1967 52.5486 13.1515 52.5369C13.0973 52.5228 13.0749 52.4978 13.0842 52.4616C13.1708 52.1273 13.1146 51.8042 12.9157 51.4925C12.7191 51.1717 12.333 50.7825 11.7572 50.325L7.25747 46.702C6.96472 46.7901 6.77518 46.8519 6.68887 46.8874C6.65708 46.8985 6.61642 46.888 6.56689 46.8559C6.51065 46.8124 6.44772 46.7575 6.37809 46.6913C6.19164 46.5177 5.99934 46.3667 5.80119 46.2383C5.59401 46.1076 5.34585 46.0048 5.05671 45.93C5.0296 45.9229 5.01854 45.8912 5.02354 45.8346C5.02184 45.7667 5.03571 45.7317 5.06515 45.7297C5.90504 45.7253 6.9326 45.6104 8.14783 45.3851L13.3338 44.4568C14.082 44.3227 14.6016 44.1775 14.8926 44.0215C15.186 43.8564 15.3666 43.6428 15.4344 43.3808ZM10.1177 46.1552L8.25069 46.4963L7.66901 46.6205L9.60207 48.1475L10.1177 46.1552Z" fill="#FCFCFC"/>
<path d="M19.3022 34.361C19.3067 34.3318 19.336 34.3259 19.39 34.3431C19.4358 34.3562 19.4627 34.3752 19.4708 34.4004C19.388 34.7251 19.2997 35.1624 19.2061 35.7124C19.2014 35.7624 19.1836 35.8582 19.1529 35.9998C19.1347 36.1374 19.1085 36.2394 19.0744 36.3058C19.0062 36.4386 18.9111 36.5419 18.7893 36.6157C18.6757 36.6938 18.4682 36.7813 18.1666 36.8782C17.8692 36.9668 17.3291 37.1196 16.5461 37.3365L16.1065 37.4569L12.9229 38.2926L15.8619 39.8023C16.111 39.9302 16.3106 40.0012 16.4607 40.0154C16.6025 40.0253 16.7283 39.9745 16.838 39.863C16.952 39.7432 17.0858 39.5338 17.2393 39.2349C17.2521 39.21 17.2834 39.2104 17.3332 39.236C17.383 39.2615 17.4015 39.2868 17.3887 39.3117C17.2523 39.5774 17.1415 39.7828 17.0565 39.928L16.5898 40.8057L16.1545 41.6839C16.0818 41.8459 15.9751 42.0638 15.8343 42.3378C15.8258 42.3544 15.7966 42.3499 15.7468 42.3243C15.697 42.2988 15.6764 42.2777 15.6849 42.2611C15.8384 41.9622 15.9307 41.7315 15.9617 41.5691C15.9926 41.4066 15.9628 41.2706 15.8722 41.1611C15.7732 41.0473 15.5992 40.9265 15.3502 40.7985L9.58433 37.8368C9.33527 37.7089 9.13983 37.64 8.99801 37.6301C8.8562 37.6202 8.72829 37.6752 8.61428 37.795C8.49623 37.9022 8.36258 38.1011 8.21333 38.3917C8.20053 38.4166 8.16923 38.4163 8.11942 38.3907C8.06961 38.3651 8.0511 38.3399 8.06389 38.315L8.39618 37.6987C8.60042 37.3419 8.75798 37.0556 8.86885 36.8398C8.98826 36.6073 9.13348 36.3042 9.30451 35.9303L9.6055 35.3137C9.61403 35.2971 9.6432 35.3016 9.69301 35.3272C9.74282 35.3528 9.76347 35.3739 9.75494 35.3905C9.60568 35.6811 9.51971 35.9097 9.49703 36.0764C9.47434 36.2432 9.51247 36.3834 9.61142 36.4972C9.70206 36.6067 9.87191 36.7254 10.121 36.8534L12.7361 38.1967L11.5393 34.2453C11.4142 33.8557 11.2727 33.6204 11.115 33.5394C10.8991 33.4285 10.6654 33.618 10.4138 34.1078C10.4053 34.1244 10.3761 34.1199 10.3263 34.0943C10.2765 34.0688 10.2558 34.0477 10.2644 34.0311L10.5583 33.4895C10.7455 33.166 10.9115 32.863 11.0565 32.5808C11.2101 32.2819 11.3638 31.9622 11.5178 31.6215L11.7612 31.117C11.774 31.0921 11.8053 31.0924 11.8551 31.118C11.9049 31.1436 11.9234 31.1689 11.9106 31.1938C11.7315 31.5425 11.6247 31.965 11.59 32.4613C11.5554 32.9577 11.6146 33.4655 11.7676 33.9848L12.7278 37.2323L15.7919 36.4454C16.9308 36.128 17.7373 35.855 18.2115 35.6264C18.6816 35.3853 18.9892 35.1235 19.1342 34.8413C19.1939 34.725 19.2499 34.5649 19.3022 34.361Z" fill="#FCFCFC"/>
<path d="M22.8989 27.0329C22.8844 27.0212 22.8888 27.0008 22.9122 26.9717C22.9297 26.9498 22.9516 26.9375 22.9778 26.9346C23.0026 26.9186 23.0186 26.9135 23.0259 26.9194C23.4916 27.4128 23.9537 27.8435 24.4123 28.2115C24.4705 28.2583 24.5054 28.3043 24.517 28.3495C24.5213 28.3888 24.4972 28.4413 24.4446 28.5068L20.7117 33.158C20.6941 33.1799 20.6635 33.1733 20.6199 33.1382C20.5762 33.1032 20.5631 33.0747 20.5806 33.0529C20.7909 32.7908 20.9246 32.587 20.9817 32.4413C21.0388 32.2956 21.0339 32.1601 20.967 32.0346C20.8929 31.9033 20.7467 31.75 20.5283 31.5748L15.473 27.5176C15.2547 27.3423 15.077 27.2356 14.9401 27.1975C14.8031 27.1594 14.6668 27.1876 14.5311 27.2821C14.3939 27.3636 14.2231 27.5316 14.0186 27.7864C14.0011 27.8082 13.9705 27.8016 13.9268 27.7666C13.8832 27.7315 13.8701 27.7031 13.8876 27.6813L17.4629 23.2265C17.5213 23.1537 17.5832 23.1436 17.6488 23.1962L19.042 24.2785C19.0638 24.296 19.0609 24.3295 19.0331 24.379C19.0039 24.4154 18.9754 24.4285 18.9478 24.4183C18.5065 24.1479 18.0905 24.0474 17.6998 24.1168C17.3018 24.1803 16.9509 24.4013 16.6471 24.7798L16.2002 25.3366C15.9431 25.6569 15.8181 25.9096 15.8251 26.0947C15.8248 26.274 15.9557 26.4688 16.2177 26.6791L18.4342 28.458L19.3981 27.257C19.696 26.8857 19.8532 26.5631 19.8697 26.2891C19.8789 26.0093 19.7488 25.7613 19.4795 25.5451C19.4649 25.5334 19.4723 25.5094 19.5015 25.473C19.5365 25.4293 19.5613 25.4133 19.5759 25.425L20.4843 26.172L20.9844 26.5554C21.229 26.7278 21.4168 26.8666 21.5478 26.9717C21.5624 26.9834 21.5521 27.0111 21.5171 27.0548C21.482 27.0984 21.4572 27.1144 21.4427 27.1027C21.1297 26.8515 20.8274 26.7585 20.5357 26.8236C20.2427 26.8757 19.9384 27.0982 19.6229 27.4913L18.6853 28.6595L21.1856 30.6662C21.4477 30.8765 21.664 30.9724 21.8346 30.9537C22.011 30.9277 22.2189 30.7655 22.4585 30.4671L23.028 29.7574C23.361 29.3425 23.5155 28.904 23.4914 28.4419C23.4659 27.9666 23.2684 27.497 22.8989 27.0329Z" fill="#FCFCFC"/>
<path d="M32.0421 20.7781C32.0504 20.759 32.0761 20.7678 32.1192 20.8047C32.1624 20.8416 32.1798 20.8697 32.1715 20.8888C31.9384 21.2063 31.7107 21.5375 31.4884 21.8824C31.2721 22.2345 31.1139 22.4525 31.0138 22.5365C30.8851 22.6445 30.669 22.6919 30.3654 22.6785C30.063 22.6521 29.5307 22.526 28.7687 22.3004C28.0067 22.0748 26.9066 21.7003 25.4684 21.177C25.3197 21.3627 25.1703 21.5186 25.0201 21.6446C24.8843 21.7586 24.7031 21.8984 24.4766 22.0641L26.6004 24.5951C26.7804 24.8096 26.9369 24.9524 27.0698 25.0237C27.1967 25.0878 27.3323 25.0897 27.4767 25.0295C27.6282 24.9632 27.8327 24.8221 28.0901 24.6061C28.1115 24.5881 28.1402 24.6006 28.1762 24.6435C28.2122 24.6864 28.2195 24.7168 28.1981 24.7348C27.9764 24.9208 27.7983 25.0642 27.6636 25.165L26.8824 25.8023L26.1407 26.4429C26.0109 26.5641 25.8315 26.7206 25.6028 26.9126C25.5813 26.9306 25.5526 26.9182 25.5166 26.8753C25.4806 26.8324 25.4733 26.8019 25.4948 26.7839C25.7521 26.5679 25.9266 26.3911 26.0182 26.2533C26.1097 26.1156 26.1349 25.9787 26.0938 25.8426C26.0467 25.6994 25.9332 25.5205 25.7532 25.306L21.5866 20.3406C21.4066 20.1261 21.2531 19.9868 21.1263 19.9227C20.9994 19.8586 20.8601 19.8597 20.7086 19.9259C20.5582 19.979 20.3543 20.1136 20.0969 20.3295C20.0826 20.3415 20.0575 20.3261 20.0215 20.2832C19.9855 20.2403 19.9746 20.2129 19.9889 20.2009L20.5342 19.7616C20.8607 19.5119 21.117 19.3091 21.3029 19.1531C21.4316 19.0451 21.5501 18.9396 21.6585 18.8364C21.7669 18.7333 21.861 18.6421 21.9408 18.563C22.1587 18.3436 22.3714 18.1468 22.5787 17.9729C23.1864 17.4629 23.7567 17.1915 24.2896 17.1586C24.8165 17.1186 25.2569 17.3094 25.6108 17.7313C25.8988 18.0745 26.0681 18.4868 26.1188 18.9682C26.1706 19.4364 26.1064 19.9045 25.9264 20.3724C27.3835 20.8311 28.4852 21.1494 29.2315 21.3273C29.9789 21.492 30.5163 21.5589 30.8436 21.5279C31.165 21.4898 31.44 21.3747 31.6688 21.1827C31.7546 21.1107 31.879 20.9759 32.0421 20.7781ZM24.2426 21.7853C24.5383 21.5859 24.7612 21.4232 24.9114 21.2972C25.369 20.9132 25.6103 20.5402 25.6353 20.178C25.6615 19.8027 25.4647 19.3648 25.0447 18.8643C24.5707 18.2995 24.1275 17.9891 23.715 17.9331C23.3026 17.8772 22.9069 18.0082 22.5279 18.3262C22.342 18.4822 22.214 18.62 22.144 18.7398C22.081 18.8535 22.0731 18.982 22.1202 19.1252C22.1613 19.2613 22.2718 19.4366 22.4518 19.6511L24.2426 21.7853Z" fill="#FCFCFC"/>
<path d="M36.2728 9.01971C36.2893 9.01093 36.3107 9.03126 36.337 9.08069C36.3634 9.13012 36.3683 9.15922 36.3518 9.16799C36.0717 9.31715 35.8349 9.60715 35.6414 10.038C35.4517 10.4562 35.3388 10.9393 35.3028 11.4872L35.0537 14.7128L36.5408 17.5055C36.6768 17.7609 36.7961 17.9353 36.8987 18.0287C37.0096 18.1177 37.1419 18.1477 37.2956 18.1187C37.4576 18.0853 37.6869 17.9897 37.9834 17.8317C38.0082 17.8186 38.0337 17.8367 38.06 17.8861C38.0863 17.9356 38.0871 17.9669 38.0624 17.98C37.807 18.116 37.603 18.2194 37.4503 18.2901L36.554 18.7515L35.6956 19.2245C35.5517 19.3117 35.3438 19.4277 35.072 19.5725C35.0473 19.5856 35.0217 19.5675 34.9954 19.5181C34.9691 19.4686 34.9683 19.4373 34.993 19.4242C35.2896 19.2663 35.4969 19.1294 35.615 19.0136C35.7331 18.8979 35.7862 18.7692 35.7742 18.6275C35.7578 18.4776 35.6839 18.2791 35.5523 18.032L34.177 15.4493L30.6526 13.5669C30.1784 13.3119 29.7967 13.1609 29.5074 13.1141C29.2263 13.0628 28.9705 13.0986 28.7398 13.2215C28.7151 13.2346 28.6896 13.2165 28.6632 13.1671C28.6369 13.1176 28.6361 13.0864 28.6608 13.0732C28.7515 13.0249 28.9 12.9564 29.1065 12.8676L29.5209 12.6628C29.7927 12.518 30.1632 12.3102 30.6322 12.0393L31.3423 11.6453C31.3588 11.6365 31.3802 11.6568 31.4065 11.7062C31.4329 11.7557 31.4378 11.7848 31.4213 11.7935C31.0341 11.9997 30.8932 12.2017 30.9984 12.3994C31.0467 12.49 31.1534 12.5812 31.3186 12.673L34.7351 14.5018L34.9544 11.5776C34.981 11.151 34.9395 10.8347 34.8298 10.6288C34.7421 10.464 34.6186 10.3712 34.4594 10.3502C34.2958 10.321 34.1028 10.3656 33.8804 10.4841C33.8557 10.4972 33.8301 10.4791 33.8038 10.4297C33.7775 10.3802 33.7767 10.3489 33.8014 10.3358L34.4135 10.0257C34.7518 9.86669 35.0569 9.71481 35.3287 9.57004C35.4688 9.49547 35.6333 9.3973 35.8222 9.27554L36.2728 9.01971Z" fill="#FCFCFC"/>
<path d="M59.4389 8.19236C60.0534 8.29519 60.558 8.55968 60.9528 8.98583C61.3476 9.41198 61.5403 9.92835 61.531 10.5349C61.5233 11.0295 61.3904 11.4756 61.1322 11.8729C60.8741 12.2703 60.5239 12.5823 60.0817 12.8088C59.6396 13.026 59.1433 13.1304 58.5927 13.1219C58.3034 13.1174 57.9816 13.0984 57.6274 13.065C57.4969 13.0536 57.3384 13.0418 57.1519 13.0296C56.9654 13.0174 56.7555 13.0095 56.5222 13.0059L55.5421 13.0048C55.3646 13.0114 55.1266 13.0124 54.828 13.0077C54.8 13.0073 54.7864 12.9791 54.7873 12.9231C54.7881 12.8671 54.8026 12.8393 54.8306 12.8398C55.1665 12.845 55.4142 12.8254 55.5736 12.7812C55.7329 12.737 55.8416 12.65 55.8996 12.5202C55.9578 12.3811 55.989 12.1716 55.9933 11.8916L56.0934 5.41038C56.0977 5.13041 56.0729 4.92467 56.0189 4.79315C55.965 4.66164 55.859 4.57132 55.7011 4.52221C55.5526 4.46391 55.3104 4.43217 54.9745 4.42698C54.9558 4.4267 54.9469 4.39855 54.9478 4.34256C54.9486 4.28657 54.9584 4.25872 54.9771 4.259L55.6768 4.28381C56.0871 4.30881 56.4136 4.32319 56.6562 4.32694C56.8335 4.32968 57.0016 4.3276 57.1604 4.32072C57.3192 4.31384 57.4546 4.3066 57.5668 4.29899C57.8752 4.27575 58.16 4.26615 58.4213 4.27018C59.1679 4.28171 59.7349 4.43515 60.1224 4.7305C60.51 5.01652 60.6995 5.4395 60.6909 5.99943C60.6789 6.774 60.2616 7.50498 59.4389 8.19236ZM58.0817 4.50297C57.8484 4.49936 57.6707 4.51996 57.5487 4.56474C57.4359 4.60968 57.3505 4.7017 57.2924 4.84082C57.2343 4.97061 57.2032 5.17548 57.1989 5.45545L57.1576 8.12913L58.9914 8.15745L59.1173 8.15939C59.4325 7.69754 59.5953 7.13065 59.6057 6.45873C59.6255 5.17088 59.1175 4.51896 58.0817 4.50297ZM58.373 12.8385C59.6609 12.8583 60.3151 12.201 60.3357 10.8665C60.3471 10.1293 60.1694 9.5478 59.8026 9.12209C59.4358 8.69637 58.8651 8.47754 58.0905 8.46558L57.1526 8.45109L57.0992 11.9087C57.0942 12.2353 57.1746 12.4699 57.3404 12.6125C57.5155 12.7552 57.8597 12.8305 58.373 12.8385Z" fill="#FCFCFC"/>
<path d="M72.6676 14.953C72.7131 14.9635 72.7295 14.996 72.717 15.0506C72.7065 15.0961 72.6785 15.1136 72.633 15.1031C72.4602 15.0632 72.194 14.9923 71.8344 14.8902L71.0191 14.6878C70.819 14.6417 70.5622 14.5921 70.2488 14.5389L69.5363 14.389C69.4999 14.3806 69.487 14.3537 69.4974 14.3082C69.51 14.2537 69.5345 14.2306 69.5709 14.2389C69.8801 14.3103 70.1103 14.3298 70.2614 14.2976C70.4216 14.2675 70.5195 14.1751 70.5551 14.0205C70.5866 13.8841 70.5712 13.6602 70.5088 13.3489L69.8168 10.0573L67.5385 9.53194L65.924 11.6739C65.7162 11.9517 65.5872 12.1997 65.5369 12.418C65.4069 12.9818 65.792 13.3676 66.6924 13.5752C66.7379 13.5857 66.7543 13.6182 66.7417 13.6728C66.7313 13.7183 66.7033 13.7358 66.6578 13.7253L65.9516 13.548C65.6102 13.4502 65.3121 13.3719 65.0575 13.3131C64.821 13.2586 64.537 13.2027 64.2054 13.1454L63.4929 12.9955C63.4565 12.9871 63.4435 12.9601 63.454 12.9147C63.4666 12.8601 63.4911 12.837 63.5275 12.8454C63.864 12.923 64.1854 12.8582 64.4918 12.6511C64.8072 12.4461 65.186 12.0497 65.628 11.462L69.1299 6.86738C69.0341 6.57708 68.9672 6.38926 68.9294 6.30392C68.9175 6.27244 68.927 6.23151 68.9577 6.18114C68.9997 6.12377 69.0529 6.0594 69.1172 5.98803C69.2858 5.79702 69.4316 5.60077 69.5547 5.39927C69.6799 5.18868 69.776 4.93787 69.8431 4.64684C69.8494 4.61956 69.8809 4.60766 69.9376 4.61115C70.0054 4.60764 70.0407 4.62058 70.0435 4.64996C70.0703 5.48943 70.2125 6.51357 70.4701 7.72237L71.5361 12.8818C71.6901 13.6261 71.849 14.1417 72.0127 14.4285C72.1856 14.7174 72.4039 14.8922 72.6676 14.953ZM69.7527 9.71205L69.362 7.85477L69.2224 7.27661L67.7473 9.24963L69.7527 9.71205Z" fill="#FCFCFC"/>
<path d="M81.8535 18.6056C81.8828 18.6093 81.8895 18.6384 81.8737 18.6929C81.8618 18.739 81.8435 18.7664 81.8185 18.7752C81.4918 18.7008 81.0523 18.6239 80.5001 18.5446C80.45 18.5412 80.3537 18.5259 80.2114 18.4989C80.0734 18.4842 79.9708 18.4607 79.9035 18.4284C79.7689 18.3636 79.6632 18.2713 79.5862 18.1514C79.5052 18.0399 79.4124 17.8347 79.3077 17.5357C79.2114 17.2407 79.0447 16.7047 78.8075 15.9277L78.6757 15.4914L77.7576 12.3305L76.3248 15.3077C76.2034 15.56 76.1375 15.7614 76.1273 15.9118C76.1211 16.0538 76.1751 16.1782 76.2894 16.285C76.4122 16.3959 76.6249 16.5242 76.9277 16.6699C76.9529 16.682 76.9534 16.7133 76.9291 16.7638C76.9048 16.8143 76.8801 16.8334 76.8548 16.8213C76.5857 16.6918 76.3775 16.5864 76.2301 16.5051L75.3406 16.0614L74.4514 15.649C74.2876 15.5806 74.0669 15.4795 73.7894 15.346C73.7726 15.3379 73.7763 15.3086 73.8006 15.2581C73.8249 15.2077 73.8454 15.1865 73.8622 15.1946C74.165 15.3403 74.398 15.4265 74.5612 15.4533C74.7244 15.48 74.8596 15.4467 74.9667 15.3532C75.0779 15.2514 75.1942 15.0743 75.3156 14.822L78.1266 8.98122C78.248 8.72892 78.3119 8.53176 78.3181 8.38973C78.3243 8.24771 78.266 8.12127 78.1433 8.01041C78.033 7.89519 77.8307 7.76674 77.5363 7.62508C77.5111 7.61294 77.5106 7.58164 77.5349 7.53118C77.5592 7.48072 77.584 7.46156 77.6092 7.4737L78.2339 7.78988C78.5958 7.98479 78.8861 8.13487 79.1048 8.2401C79.3403 8.35344 79.6471 8.49074 80.0252 8.65201L80.6494 8.93689C80.6662 8.94499 80.6625 8.97426 80.6382 9.02472C80.6139 9.07518 80.5934 9.09637 80.5766 9.08827C80.2822 8.94661 80.0514 8.8666 79.8841 8.84825C79.7169 8.8299 79.5777 8.87166 79.4665 8.97353C79.3594 9.06698 79.2451 9.23986 79.1237 9.49216L77.8487 12.1413L81.7677 10.8424C82.1539 10.7071 82.3854 10.5596 82.4623 10.3998C82.5676 10.1812 82.3721 9.95242 81.8759 9.71362C81.8591 9.70552 81.8628 9.67624 81.8871 9.62578C81.9114 9.57532 81.9319 9.55414 81.9488 9.56224L82.4977 9.84199C82.8261 10.0207 83.1332 10.1789 83.4191 10.3165C83.7219 10.4622 84.0455 10.6076 84.39 10.7527L84.9007 10.9829C84.9259 10.9951 84.9264 11.0264 84.9021 11.0768C84.8778 11.1273 84.853 11.1465 84.8278 11.1343C84.4746 10.9643 84.0494 10.8685 83.5524 10.8467C83.0553 10.825 82.5492 10.8974 82.034 11.0638L78.8125 12.108L79.6787 15.1506C80.0255 16.2808 80.3194 17.08 80.5602 17.5481C80.8135 18.0118 81.0831 18.3125 81.369 18.4501C81.4868 18.5067 81.6483 18.5586 81.8535 18.6056Z" fill="#FCFCFC"/>
<path d="M89.0668 21.8496C89.0781 21.8347 89.0986 21.8386 89.1284 21.8611C89.1507 21.8779 89.1637 21.8995 89.1673 21.9256C89.184 21.9499 89.1896 21.9658 89.184 21.9733C88.7043 22.4531 88.2873 22.9276 87.9328 23.3967C87.8878 23.4563 87.8428 23.4925 87.798 23.5054C87.7588 23.5109 87.7056 23.4883 87.6386 23.4376L82.8805 19.8419C82.8581 19.825 82.8639 19.7942 82.8976 19.7496C82.9314 19.7049 82.9594 19.691 82.9818 19.7079C83.2498 19.9104 83.4575 20.0381 83.6048 20.0909C83.7521 20.1437 83.8874 20.1349 84.0109 20.0644C84.14 19.9865 84.2889 19.8358 84.4577 19.6124L88.3658 14.441C88.5346 14.2177 88.6361 14.037 88.6702 13.8989C88.7043 13.7609 88.6721 13.6255 88.5737 13.4926C88.4883 13.3579 88.3153 13.192 88.0547 12.9951C88.0323 12.9782 88.038 12.9474 88.0718 12.9028C88.1056 12.8581 88.1336 12.8442 88.1559 12.8611L92.713 16.3049C92.7875 16.3612 92.7994 16.4228 92.7488 16.4898L91.7076 17.914C91.6907 17.9364 91.6571 17.9344 91.6068 17.9081C91.5696 17.8799 91.5557 17.8519 91.5651 17.8239C91.8225 17.375 91.9108 16.9562 91.8301 16.5677C91.755 16.1717 91.5238 15.8274 91.1366 15.5347L90.567 15.1043C90.2394 14.8567 89.9831 14.7391 89.7983 14.7515C89.6191 14.7564 89.4282 14.8929 89.2256 15.161L87.5121 17.4283L88.7407 18.3568C89.1205 18.6438 89.4476 18.7915 89.7219 18.8C90.0019 18.801 90.246 18.6638 90.4542 18.3883C90.4655 18.3734 90.4897 18.38 90.527 18.4081C90.5716 18.4419 90.5883 18.4662 90.5771 18.4811L89.8569 19.4109L89.4882 19.922C89.3231 20.1715 89.1898 20.3633 89.0885 20.4973C89.0773 20.5122 89.0493 20.5028 89.0046 20.469C88.96 20.4352 88.9433 20.4109 88.9545 20.396C89.1965 20.0758 89.2807 19.7709 89.207 19.4813C89.1465 19.1899 88.9152 18.8923 88.5131 18.5884L87.318 17.6852L85.385 20.243C85.1825 20.5111 85.093 20.7301 85.1166 20.9C85.1477 21.0756 85.3159 21.2788 85.6212 21.5095L86.3472 22.0581C86.7717 22.3789 87.2145 22.5205 87.6757 22.483C88.15 22.4436 88.6137 22.2325 89.0668 21.8496Z" fill="#FCFCFC"/>
<path d="M95.7996 31.0436C95.8189 31.0514 95.8107 31.0773 95.7749 31.1214C95.7391 31.1655 95.7116 31.1836 95.6922 31.1758C95.3689 30.9508 95.032 30.7316 94.6815 30.5182C94.3241 30.3109 94.1021 30.1583 94.0156 30.0604C93.9043 29.9345 93.8515 29.7196 93.8571 29.4158C93.8758 29.1128 93.9883 28.5776 94.1944 27.8101C94.4006 27.0426 94.7469 25.9333 95.2334 24.4822C95.044 24.3383 94.8844 24.1929 94.7546 24.046C94.6372 23.9131 94.4928 23.7355 94.3214 23.5133L91.8453 25.7009C91.6355 25.8863 91.4966 26.0463 91.4288 26.181C91.3679 26.3095 91.3695 26.4451 91.4334 26.5879C91.5035 26.7377 91.6497 26.9385 91.8722 27.1903C91.8907 27.2113 91.879 27.2403 91.837 27.2774C91.7951 27.3145 91.7648 27.3225 91.7463 27.3016C91.5547 27.0847 91.4068 26.9103 91.3026 26.7782L90.6457 26.0135L89.9863 25.2884C89.8619 25.1616 89.7008 24.9864 89.5031 24.7625C89.4846 24.7416 89.4963 24.7125 89.5382 24.6754C89.5802 24.6384 89.6105 24.6303 89.629 24.6513C89.8515 24.9031 90.0327 25.073 90.1727 25.161C90.3128 25.249 90.4503 25.2708 90.5853 25.2262C90.7273 25.1755 90.9032 25.0574 91.113 24.872L95.9707 20.5803C96.1806 20.3949 96.3159 20.238 96.3768 20.1095C96.4376 19.981 96.433 19.8419 96.3629 19.6921C96.306 19.5431 96.1663 19.3427 95.9439 19.0909C95.9315 19.0769 95.9463 19.0514 95.9883 19.0143C96.0302 18.9772 96.0574 18.9657 96.0698 18.9797L96.5227 19.5135C96.7806 19.8336 96.9899 20.0846 97.1506 20.2665C97.2618 20.3924 97.3704 20.5082 97.4763 20.6139C97.5821 20.7197 97.6756 20.8114 97.7568 20.8892C97.9817 21.1015 98.1838 21.309 98.363 21.5119C98.8882 22.1064 99.1741 22.6696 99.2205 23.2014C99.274 23.7271 99.0944 24.1723 98.6817 24.5369C98.3459 24.8335 97.9381 25.0132 97.4581 25.0761C96.9913 25.1398 96.5218 25.0876 96.0495 24.9195C95.628 26.3878 95.3379 27.4973 95.179 28.2479C95.0334 28.9993 94.9802 29.5382 95.0195 29.8646C95.0658 30.1849 95.1878 30.4569 95.3856 30.6807C95.4597 30.7647 95.5977 30.8856 95.7996 31.0436ZM94.5942 23.2723C94.801 23.5628 94.9693 23.7815 95.0991 23.9284C95.4946 24.3761 95.8737 24.6078 96.2364 24.6236C96.6122 24.6403 97.045 24.4323 97.5346 23.9997C98.0872 23.5115 98.3862 23.0606 98.4316 22.6468C98.477 22.233 98.336 21.8408 98.0085 21.4701C97.8478 21.2882 97.7067 21.1638 97.5852 21.0968C97.4699 21.0367 97.3413 21.0321 97.1993 21.0828C97.0643 21.1274 96.8919 21.2423 96.682 21.4277L94.5942 23.2723Z" fill="#FCFCFC"/>
<path d="M107.665 35.0014C107.674 35.0176 107.655 35.0396 107.606 35.0671C107.557 35.0947 107.528 35.1004 107.519 35.0842C107.363 34.808 107.067 34.5788 106.631 34.3964C106.208 34.2176 105.722 34.1173 105.174 34.0954L101.943 33.9298L99.1892 35.4886C98.9374 35.6311 98.7662 35.7549 98.6754 35.8599C98.5893 35.973 98.5628 36.106 98.5957 36.259C98.6333 36.42 98.7348 36.6468 98.9004 36.9392C98.9142 36.9635 98.8967 36.9895 98.848 37.0171C98.7992 37.0447 98.768 37.0463 98.7542 37.0219C98.6116 36.7701 98.503 36.5689 98.4284 36.4181L97.9439 35.534L97.4489 34.6881C97.358 34.5465 97.2367 34.3417 97.085 34.0736C97.0712 34.0493 97.0887 34.0233 97.1374 33.9957C97.1861 33.9681 97.2174 33.9665 97.2312 33.9909C97.3967 34.2833 97.5389 34.487 97.6577 34.6021C97.7764 34.7172 97.9065 34.7669 98.0478 34.7512C98.1972 34.731 98.3937 34.6519 98.6374 34.514L101.184 33.0724L102.974 29.5006C103.217 29.02 103.358 28.6344 103.397 28.344C103.441 28.0617 103.399 27.8069 103.27 27.5795C103.256 27.5551 103.274 27.5291 103.323 27.5015C103.371 27.4739 103.403 27.4723 103.416 27.4967C103.467 27.586 103.539 27.7328 103.633 27.9369L103.849 28.3458C104.001 28.6138 104.218 28.9788 104.501 29.4407L104.913 30.1404C104.922 30.1566 104.903 30.1786 104.854 30.2061C104.805 30.2337 104.776 30.2394 104.767 30.2232C104.551 29.8414 104.345 29.7057 104.15 29.8161C104.061 29.8667 103.973 29.9757 103.885 30.1432L102.145 33.6058L105.074 33.7495C105.501 33.7651 105.816 33.7154 106.019 33.6004C106.182 33.5085 106.272 33.3826 106.288 33.2229C106.313 33.0587 106.264 32.8669 106.14 32.6476C106.126 32.6232 106.143 32.5972 106.192 32.5696C106.241 32.542 106.272 32.5404 106.286 32.5648L106.612 33.1687C106.779 33.5027 106.939 33.8038 107.091 34.0718C107.169 34.2099 107.271 34.3718 107.398 34.5575L107.665 35.0014Z" fill="#FCFCFC"/>
<circle cx="46.1626" cy="10.0693" r="2.5" fill="#FCFCFC"/>
<circle cx="108.163" cy="48.0693" r="2.5" fill="#FCFCFC"/>
<circle cx="69.1626" cy="108.069" r="2.5" fill="#FCFCFC"/>
<circle cx="10.1626" cy="69.0693" r="2.5" fill="#FCFCFC"/>
</g>
<path d="M42.218 86C42.19 86 42.176 85.958 42.176 85.874C42.176 85.79 42.19 85.748 42.218 85.748C42.834 85.748 43.282 85.713 43.562 85.643C43.856 85.559 44.059 85.419 44.171 85.223C44.283 85.027 44.339 84.719 44.339 84.299V80.351C44.339 79.777 44.304 79.385 44.234 79.175C44.164 78.951 44.017 78.839 43.793 78.839C43.513 78.839 42.988 79.021 42.218 79.385L42.176 79.406C42.134 79.406 42.099 79.371 42.071 79.301C42.043 79.231 42.057 79.189 42.113 79.175L45.116 77.705C45.13 77.691 45.151 77.684 45.179 77.684C45.221 77.684 45.256 77.705 45.284 77.747C45.312 77.775 45.326 77.81 45.326 77.852V84.299C45.326 84.733 45.375 85.048 45.473 85.244C45.571 85.44 45.76 85.573 46.04 85.643C46.334 85.713 46.796 85.748 47.426 85.748C47.468 85.748 47.489 85.79 47.489 85.874C47.489 85.958 47.468 86 47.426 86C46.978 86 46.621 85.993 46.355 85.979L44.822 85.958L43.331 85.979C43.065 85.993 42.694 86 42.218 86ZM51.7527 83.69C51.0667 83.69 50.4997 83.55 50.0517 83.27C49.6037 82.99 49.2747 82.64 49.0647 82.22C48.8547 81.786 48.7497 81.338 48.7497 80.876C48.7497 80.246 48.9177 79.686 49.2537 79.196C49.5897 78.706 50.0447 78.321 50.6187 78.041C51.2067 77.761 51.8507 77.621 52.5507 77.621C53.3907 77.621 54.1187 77.831 54.7347 78.251C55.3647 78.657 55.8477 79.231 56.1837 79.973C56.5337 80.715 56.7087 81.576 56.7087 82.556C56.7087 83.83 56.4147 85.083 55.8267 86.315C55.2387 87.561 54.3847 88.667 53.2647 89.633C52.1587 90.599 50.8497 91.313 49.3377 91.775C49.2957 91.789 49.2537 91.761 49.2117 91.691C49.1837 91.621 49.1977 91.572 49.2537 91.544C50.5977 91.012 51.7457 90.27 52.6977 89.318C53.6497 88.38 54.3637 87.351 54.8397 86.231C55.3157 85.125 55.5537 84.04 55.5537 82.976C55.5537 82.22 55.4347 81.464 55.1967 80.708C54.9727 79.938 54.6087 79.294 54.1047 78.776C53.6007 78.258 52.9637 77.999 52.1937 77.999C51.4937 77.999 50.9337 78.223 50.5137 78.671C50.1077 79.105 49.9047 79.714 49.9047 80.498C49.9047 81.254 50.1147 81.891 50.5347 82.409C50.9547 82.913 51.5567 83.165 52.3407 83.165C52.7327 83.165 53.0757 83.109 53.3697 82.997C53.6637 82.871 53.9997 82.654 54.3777 82.346C54.3917 82.332 54.4127 82.325 54.4407 82.325C54.4827 82.325 54.5247 82.346 54.5667 82.388C54.6087 82.43 54.6227 82.465 54.6087 82.493C53.8947 83.291 52.9427 83.69 51.7527 83.69ZM61.5144 83.69C60.8284 83.69 60.2614 83.55 59.8134 83.27C59.3654 82.99 59.0364 82.64 58.8264 82.22C58.6164 81.786 58.5114 81.338 58.5114 80.876C58.5114 80.246 58.6794 79.686 59.0154 79.196C59.3514 78.706 59.8064 78.321 60.3804 78.041C60.9684 77.761 61.6124 77.621 62.3124 77.621C63.1524 77.621 63.8804 77.831 64.4964 78.251C65.1264 78.657 65.6094 79.231 65.9454 79.973C66.2954 80.715 66.4704 81.576 66.4704 82.556C66.4704 83.83 66.1764 85.083 65.5884 86.315C65.0004 87.561 64.1464 88.667 63.0264 89.633C61.9204 90.599 60.6114 91.313 59.0994 91.775C59.0574 91.789 59.0154 91.761 58.9734 91.691C58.9454 91.621 58.9594 91.572 59.0154 91.544C60.3594 91.012 61.5074 90.27 62.4594 89.318C63.4114 88.38 64.1254 87.351 64.6014 86.231C65.0774 85.125 65.3154 84.04 65.3154 82.976C65.3154 82.22 65.1964 81.464 64.9584 80.708C64.7344 79.938 64.3704 79.294 63.8664 78.776C63.3624 78.258 62.7254 77.999 61.9554 77.999C61.2554 77.999 60.6954 78.223 60.2754 78.671C59.8694 79.105 59.6664 79.714 59.6664 80.498C59.6664 81.254 59.8764 81.891 60.2964 82.409C60.7164 82.913 61.3184 83.165 62.1024 83.165C62.4944 83.165 62.8374 83.109 63.1314 82.997C63.4254 82.871 63.7614 82.654 64.1394 82.346C64.1534 82.332 64.1744 82.325 64.2024 82.325C64.2444 82.325 64.2864 82.346 64.3284 82.388C64.3704 82.43 64.3844 82.465 64.3704 82.493C63.6564 83.291 62.7044 83.69 61.5144 83.69ZM68.2731 85.748C69.5191 84.782 70.4851 83.97 71.1711 83.312C71.8711 82.654 72.3751 82.059 72.6831 81.527C73.0051 80.995 73.1661 80.47 73.1661 79.952C73.1661 79.364 72.9841 78.902 72.6201 78.566C72.2561 78.216 71.7941 78.041 71.2341 78.041C70.6741 78.041 70.1841 78.258 69.7641 78.692C69.3441 79.112 69.0221 79.742 68.7981 80.582C68.7981 80.596 68.7701 80.603 68.7141 80.603C68.5881 80.603 68.5321 80.575 68.5461 80.519L69.3441 77.432C69.3441 77.404 69.3721 77.39 69.4281 77.39C69.4701 77.39 69.5051 77.404 69.5331 77.432C69.5751 77.446 69.5891 77.46 69.5751 77.474C69.5611 77.53 69.5541 77.6 69.5541 77.684C69.5541 77.908 69.6591 78.02 69.8691 78.02C69.9951 78.02 70.2051 77.971 70.4991 77.873C70.7091 77.817 70.9471 77.761 71.2131 77.705C71.4791 77.649 71.7381 77.621 71.9901 77.621C72.6901 77.621 73.2431 77.817 73.6491 78.209C74.0691 78.587 74.2791 79.091 74.2791 79.721C74.2791 80.197 74.1321 80.673 73.8381 81.149C73.5581 81.625 73.0961 82.164 72.4521 82.766C71.8081 83.368 70.9121 84.11 69.7641 84.992C69.7081 85.034 69.6871 85.069 69.7011 85.097C69.7291 85.125 69.7781 85.139 69.8481 85.139C71.4861 85.139 72.6061 85.118 73.2081 85.076C73.8241 85.02 74.2581 84.901 74.5101 84.719C74.7621 84.523 74.9441 84.18 75.0561 83.69C75.0701 83.662 75.1121 83.655 75.1821 83.669C75.2661 83.669 75.3081 83.683 75.3081 83.711L75.0141 85.769C75.0141 85.825 74.9931 85.881 74.9511 85.937C74.9231 85.979 74.8811 86 74.8251 86H68.4201C68.3641 86 68.3151 85.972 68.2731 85.916C68.2311 85.86 68.2311 85.804 68.2731 85.748Z" fill="white"/>
</svg>
