<svg width="59" height="63" viewBox="0 0 59 63" fill="none" xmlns="http://www.w3.org/2000/svg">
<path d="M57.5009 46.7566C58.1456 47.1349 58.364 47.9661 57.9584 48.594C54.5801 53.8231 49.7213 57.9432 43.9874 60.4191C37.8385 63.0742 31.0034 63.7003 24.4745 62.2066C17.9456 60.7128 12.0628 57.1769 7.68014 52.1122C3.29751 47.0476 0.643253 40.7179 0.102744 34.0421C-0.437765 27.3663 1.16361 20.6921 4.67437 14.9883C8.18512 9.28459 13.4225 4.84833 19.626 2.32366C25.8296 -0.201016 32.6764 -0.682668 39.1723 0.948631C45.2298 2.46985 50.6882 5.75463 54.8637 10.3721C55.3651 10.9266 55.2833 11.7821 54.7078 12.2592V12.2592C54.1323 12.7363 53.2813 12.6541 52.7776 12.1017C48.9711 7.9263 44.0122 4.9552 38.5129 3.57419C32.5753 2.08309 26.3169 2.52335 20.6465 4.83105C14.9761 7.13875 10.1888 11.1938 6.97974 16.4073C3.7707 21.6209 2.30694 27.7216 2.801 33.8236C3.29506 39.9257 5.72121 45.7114 9.7272 50.3408C13.7332 54.9702 19.1105 58.2023 25.0783 59.5677C31.0461 60.9331 37.2938 60.3608 42.9142 57.9338C48.1196 55.6861 52.536 51.9559 55.6212 47.2226C56.0294 46.5963 56.8561 46.3783 57.5009 46.7566V46.7566Z" fill="#FCFCFC"/>
</svg>
